<mxfile host="app.diagrams.net" modified="2024-05-13T13:15:38.748Z" agent="Mozilla/5.0 (Macintosh; Intel Mac OS X 10_15_7) AppleWebKit/537.36 (KHTML, like Gecko) Chrome/124.0.0.0 Safari/537.36" etag="MGtLba9IZhxO8b6_rzHJ" version="24.3.1" type="device">
  <diagram name="Page-1" id="SJAayYszGuGSUiWaUFzU">
    <mxGraphModel dx="1805" dy="2196" grid="1" gridSize="10" guides="1" tooltips="1" connect="1" arrows="1" fold="1" page="1" pageScale="1" pageWidth="850" pageHeight="1100" math="0" shadow="0">
      <root>
        <mxCell id="0" />
        <mxCell id="1" parent="0" />
        <mxCell id="r2m8VjiUt9aS7Ca-MvFo-38" style="edgeStyle=orthogonalEdgeStyle;rounded=0;orthogonalLoop=1;jettySize=auto;html=1;entryX=0.5;entryY=1;entryDx=0;entryDy=0;" edge="1" parent="1" source="r2m8VjiUt9aS7Ca-MvFo-1" target="r2m8VjiUt9aS7Ca-MvFo-5">
          <mxGeometry relative="1" as="geometry" />
        </mxCell>
        <mxCell id="r2m8VjiUt9aS7Ca-MvFo-1" value="&lt;span style=&quot;font-size: 14px;&quot;&gt;π(&lt;/span&gt;&lt;span style=&quot;font-size: 14px; text-align: start;&quot;&gt;Н_ТИПЫ_ВЕДОМОСТЕЙ&lt;/span&gt;&lt;span style=&quot;font-size: 14px; text-align: start; color: rgb(8, 8, 8);&quot;&gt;.&lt;/span&gt;&lt;span style=&quot;font-size: 14px; text-align: start; color: rgb(135, 16, 148);&quot;&gt;НАИМЕНОВАНИЕ&lt;/span&gt;&lt;span style=&quot;font-size: 14px; text-align: start; color: rgb(8, 8, 8);&quot;&gt;,&lt;/span&gt;&lt;div&gt;&lt;span style=&quot;font-size: 14px; text-align: start; color: rgb(8, 8, 8);&quot;&gt;&amp;nbsp;&lt;/span&gt;&lt;span style=&quot;font-size: 14px; text-align: start;&quot;&gt;Н_ВЕДОМОСТИ&lt;/span&gt;&lt;span style=&quot;font-size: 14px; text-align: start; color: rgb(8, 8, 8);&quot;&gt;.&lt;/span&gt;&lt;span style=&quot;font-size: 14px; text-align: start; color: rgb(135, 16, 148);&quot;&gt;ИД&lt;/span&gt;&lt;span style=&quot;font-size: 14px; text-align: start;&quot;&gt;&lt;/span&gt;&lt;span style=&quot;font-size: 14px;&quot;&gt;)&lt;/span&gt;&lt;br&gt;&lt;/div&gt;" style="rounded=0;whiteSpace=wrap;html=1;" vertex="1" parent="1">
          <mxGeometry x="220.25" y="170" width="319.5" height="40" as="geometry" />
        </mxCell>
        <mxCell id="r2m8VjiUt9aS7Ca-MvFo-17" style="edgeStyle=orthogonalEdgeStyle;rounded=0;orthogonalLoop=1;jettySize=auto;html=1;entryX=0.5;entryY=1;entryDx=0;entryDy=0;" edge="1" parent="1" source="r2m8VjiUt9aS7Ca-MvFo-2" target="r2m8VjiUt9aS7Ca-MvFo-4">
          <mxGeometry relative="1" as="geometry" />
        </mxCell>
        <mxCell id="r2m8VjiUt9aS7Ca-MvFo-2" value="&lt;font face=&quot;Helvetica&quot; style=&quot;font-size: 14px;&quot;&gt;&lt;font style=&quot;&quot;&gt;⋈(&lt;/font&gt;&lt;span style=&quot;text-align: start;&quot;&gt;Н_ТИПЫ_ВЕДОМОСТЕЙ&lt;/span&gt;&lt;span style=&quot;text-align: start; color: rgb(8, 8, 8);&quot;&gt;.&lt;/span&gt;&lt;span style=&quot;text-align: start; color: rgb(135, 16, 148);&quot;&gt;ИД &lt;/span&gt;&lt;span style=&quot;text-align: start; color: rgb(8, 8, 8);&quot;&gt;= &lt;/span&gt;&lt;span style=&quot;text-align: start;&quot;&gt;Н_ВЕДОМОСТИ&lt;/span&gt;&lt;span style=&quot;text-align: start; color: rgb(8, 8, 8);&quot;&gt;.&lt;/span&gt;&lt;span style=&quot;text-align: start; color: rgb(135, 16, 148);&quot;&gt;ТВ_ИД&lt;/span&gt;&lt;span style=&quot;text-align: start;&quot;&gt;&lt;/span&gt;&lt;font style=&quot;&quot;&gt;)&lt;/font&gt;&lt;/font&gt;" style="rounded=0;whiteSpace=wrap;html=1;" vertex="1" parent="1">
          <mxGeometry x="260" y="310" width="240" height="40" as="geometry" />
        </mxCell>
        <mxCell id="r2m8VjiUt9aS7Ca-MvFo-15" style="edgeStyle=orthogonalEdgeStyle;rounded=0;orthogonalLoop=1;jettySize=auto;html=1;entryX=0.5;entryY=1;entryDx=0;entryDy=0;" edge="1" parent="1" source="r2m8VjiUt9aS7Ca-MvFo-3" target="r2m8VjiUt9aS7Ca-MvFo-2">
          <mxGeometry relative="1" as="geometry" />
        </mxCell>
        <mxCell id="r2m8VjiUt9aS7Ca-MvFo-3" value="&lt;span style=&quot;text-align: start;&quot; lang=&quot;RU&quot;&gt;&lt;font style=&quot;font-size: 14px;&quot; face=&quot;Helvetica&quot;&gt;Н_ТИПЫ_ВЕДОМОСТЕЙ&lt;/font&gt;&lt;/span&gt;&lt;span style=&quot;font-size: medium; text-align: start;&quot;&gt;&lt;/span&gt;" style="rounded=0;whiteSpace=wrap;html=1;" vertex="1" parent="1">
          <mxGeometry x="170" y="390" width="210" height="30" as="geometry" />
        </mxCell>
        <mxCell id="r2m8VjiUt9aS7Ca-MvFo-19" style="edgeStyle=orthogonalEdgeStyle;rounded=0;orthogonalLoop=1;jettySize=auto;html=1;entryX=0.5;entryY=1;entryDx=0;entryDy=0;" edge="1" parent="1" source="r2m8VjiUt9aS7Ca-MvFo-4" target="r2m8VjiUt9aS7Ca-MvFo-1">
          <mxGeometry relative="1" as="geometry" />
        </mxCell>
        <mxCell id="r2m8VjiUt9aS7Ca-MvFo-4" value="&lt;font face=&quot;Helvetica&quot; style=&quot;font-size: 14px;&quot;&gt;&lt;span style=&quot;text-align: left; background-color: rgb(255, 255, 255);&quot;&gt;δ&lt;/span&gt;(&lt;span style=&quot;text-align: start;&quot;&gt;Н_ТИПЫ_ВЕДОМОСТЕЙ&lt;/span&gt;&lt;span style=&quot;text-align: start; color: rgb(8, 8, 8);&quot;&gt;.&lt;/span&gt;&lt;/font&gt;&lt;div&gt;&lt;font face=&quot;Helvetica&quot; style=&quot;font-size: 14px;&quot;&gt;&lt;span style=&quot;text-align: start; color: rgb(135, 16, 148);&quot;&gt;НАИМЕНОВАНИЕ&lt;/span&gt;&lt;span style=&quot;text-align: start; color: rgb(8, 8, 8);&quot;&gt;=&lt;/span&gt;&lt;span style=&quot;text-align: start; color: rgb(6, 125, 23);&quot;&gt;&#39;Ведомость&#39;&lt;/span&gt;&lt;span style=&quot;text-align: start;&quot;&gt;&lt;/span&gt;)&lt;/font&gt;&lt;/div&gt;" style="rounded=0;whiteSpace=wrap;html=1;" vertex="1" parent="1">
          <mxGeometry x="269" y="240" width="222" height="40" as="geometry" />
        </mxCell>
        <mxCell id="r2m8VjiUt9aS7Ca-MvFo-5" value="&lt;font style=&quot;font-size: 14px;&quot;&gt;result&lt;/font&gt;" style="rounded=0;whiteSpace=wrap;html=1;" vertex="1" parent="1">
          <mxGeometry x="350" y="110" width="60" height="30" as="geometry" />
        </mxCell>
        <mxCell id="r2m8VjiUt9aS7Ca-MvFo-6" value="&lt;font style=&quot;font-size: 14px;&quot;&gt;result&lt;/font&gt;" style="rounded=0;whiteSpace=wrap;html=1;" vertex="1" parent="1">
          <mxGeometry x="343.5" y="490" width="60" height="30" as="geometry" />
        </mxCell>
        <mxCell id="r2m8VjiUt9aS7Ca-MvFo-13" style="edgeStyle=orthogonalEdgeStyle;rounded=0;orthogonalLoop=1;jettySize=auto;html=1;entryX=0.5;entryY=1;entryDx=0;entryDy=0;" edge="1" parent="1" source="r2m8VjiUt9aS7Ca-MvFo-11" target="r2m8VjiUt9aS7Ca-MvFo-12">
          <mxGeometry relative="1" as="geometry" />
        </mxCell>
        <mxCell id="r2m8VjiUt9aS7Ca-MvFo-11" value="&lt;span style=&quot;text-align: start;&quot;&gt;&lt;font style=&quot;font-size: 14px;&quot; face=&quot;Helvetica&quot;&gt;Н_ВЕДОМОСТИ&lt;/font&gt;&lt;/span&gt;&lt;span style=&quot;font-size: medium; text-align: start;&quot;&gt;&lt;/span&gt;&lt;br&gt;&lt;span style=&quot;font-size: medium; text-align: start;&quot;&gt;&lt;/span&gt;" style="rounded=0;whiteSpace=wrap;html=1;" vertex="1" parent="1">
          <mxGeometry x="415" y="450" width="210" height="30" as="geometry" />
        </mxCell>
        <mxCell id="r2m8VjiUt9aS7Ca-MvFo-14" style="edgeStyle=orthogonalEdgeStyle;rounded=0;orthogonalLoop=1;jettySize=auto;html=1;entryX=0.5;entryY=1;entryDx=0;entryDy=0;" edge="1" parent="1" source="r2m8VjiUt9aS7Ca-MvFo-12" target="r2m8VjiUt9aS7Ca-MvFo-2">
          <mxGeometry relative="1" as="geometry" />
        </mxCell>
        <mxCell id="r2m8VjiUt9aS7Ca-MvFo-12" value="&lt;p&gt;&lt;font face=&quot;Helvetica&quot; style=&quot;font-size: 14px;&quot;&gt;&lt;span style=&quot;text-align: left; background-color: rgb(255, 255, 255);&quot;&gt;δ(&lt;/span&gt;&lt;span style=&quot;text-align: start;&quot;&gt;&lt;span style=&quot;background-color: rgb(255, 255, 255);&quot;&gt;Н_ВЕ&lt;/span&gt;ДОМОСТИ&lt;/span&gt;&lt;span style=&quot;background-color: initial; text-align: start; color: rgb(8, 8, 8);&quot;&gt;.&lt;/span&gt;&lt;span style=&quot;background-color: initial; text-align: start; color: rgb(135, 16, 148);&quot;&gt;ЧЛВК_ИД&lt;/span&gt;&lt;span style=&quot;background-color: initial; text-align: start; color: rgb(8, 8, 8);&quot;&gt;=&lt;/span&gt;&lt;span style=&quot;background-color: initial; text-align: start; color: rgb(23, 80, 235);&quot;&gt;16324&lt;/span&gt;&lt;span style=&quot;background-color: initial; text-align: start;&quot;&gt;)&lt;/span&gt;&lt;/font&gt;&lt;/p&gt;&lt;span style=&quot;font-size: medium; text-align: start;&quot;&gt;&lt;/span&gt;" style="rounded=0;whiteSpace=wrap;html=1;" vertex="1" parent="1">
          <mxGeometry x="390" y="390" width="260" height="30" as="geometry" />
        </mxCell>
        <mxCell id="r2m8VjiUt9aS7Ca-MvFo-35" style="edgeStyle=orthogonalEdgeStyle;rounded=0;orthogonalLoop=1;jettySize=auto;html=1;entryX=0.5;entryY=1;entryDx=0;entryDy=0;" edge="1" parent="1" source="r2m8VjiUt9aS7Ca-MvFo-20" target="r2m8VjiUt9aS7Ca-MvFo-6">
          <mxGeometry relative="1" as="geometry" />
        </mxCell>
        <mxCell id="r2m8VjiUt9aS7Ca-MvFo-20" value="&lt;font face=&quot;Helvetica&quot; style=&quot;font-size: 14px;&quot;&gt;π(&lt;span style=&quot;text-align: start;&quot;&gt;Н_ТИПЫ_ВЕДОМОСТЕЙ&lt;/span&gt;&lt;span style=&quot;text-align: start; color: rgb(8, 8, 8);&quot;&gt;.&lt;/span&gt;&lt;span style=&quot;text-align: start; color: rgb(135, 16, 148);&quot;&gt;НАИМЕНОВАНИЕ&lt;/span&gt;&lt;span style=&quot;text-align: start; color: rgb(8, 8, 8);&quot;&gt;, &lt;/span&gt;&lt;span style=&quot;text-align: start;&quot;&gt;Н_ВЕДОМОСТИ&lt;/span&gt;&lt;span style=&quot;text-align: start; color: rgb(8, 8, 8);&quot;&gt;.&lt;/span&gt;&lt;span style=&quot;text-align: start; color: rgb(135, 16, 148);&quot;&gt;ИД&lt;/span&gt;&lt;span style=&quot;text-align: start;&quot;&gt;&lt;/span&gt;)&lt;/font&gt;" style="rounded=0;whiteSpace=wrap;html=1;" vertex="1" parent="1">
          <mxGeometry x="200.25" y="550" width="346.5" height="50" as="geometry" />
        </mxCell>
        <mxCell id="r2m8VjiUt9aS7Ca-MvFo-21" style="edgeStyle=orthogonalEdgeStyle;rounded=0;orthogonalLoop=1;jettySize=auto;html=1;entryX=0.5;entryY=1;entryDx=0;entryDy=0;" edge="1" parent="1" source="r2m8VjiUt9aS7Ca-MvFo-22" target="r2m8VjiUt9aS7Ca-MvFo-20">
          <mxGeometry relative="1" as="geometry">
            <mxPoint x="373.5" y="590.0000000000001" as="targetPoint" />
          </mxGeometry>
        </mxCell>
        <mxCell id="r2m8VjiUt9aS7Ca-MvFo-22" value="&lt;font face=&quot;Helvetica&quot; style=&quot;font-size: 14px;&quot;&gt;&lt;font style=&quot;&quot;&gt;⋈(&lt;/font&gt;&lt;span style=&quot;text-align: start;&quot;&gt;Н_ТИПЫ_ВЕДОМОСТЕЙ&lt;/span&gt;&lt;span style=&quot;text-align: start; color: rgb(8, 8, 8);&quot;&gt;.&lt;/span&gt;&lt;span style=&quot;text-align: start; color: rgb(135, 16, 148);&quot;&gt;ИД &lt;/span&gt;&lt;span style=&quot;text-align: start; color: rgb(8, 8, 8);&quot;&gt;= &lt;/span&gt;&lt;span style=&quot;text-align: start;&quot;&gt;Н_ВЕДОМОСТИ&lt;/span&gt;&lt;span style=&quot;text-align: start; color: rgb(8, 8, 8);&quot;&gt;.&lt;/span&gt;&lt;span style=&quot;text-align: start; color: rgb(135, 16, 148);&quot;&gt;ТВ_ИД&lt;/span&gt;&lt;span style=&quot;text-align: start;&quot;&gt;&lt;/span&gt;&lt;font style=&quot;&quot;&gt;)&lt;/font&gt;&lt;/font&gt;" style="rounded=0;whiteSpace=wrap;html=1;" vertex="1" parent="1">
          <mxGeometry x="243" y="620" width="261" height="40" as="geometry" />
        </mxCell>
        <mxCell id="r2m8VjiUt9aS7Ca-MvFo-24" value="&lt;span style=&quot;text-align: start;&quot; lang=&quot;RU&quot;&gt;&lt;font style=&quot;font-size: 14px;&quot; face=&quot;Helvetica&quot;&gt;Н_ТИПЫ_ВЕДОМОСТЕЙ&lt;/font&gt;&lt;/span&gt;&lt;span style=&quot;font-size: medium; text-align: start;&quot;&gt;&lt;/span&gt;" style="rounded=0;whiteSpace=wrap;html=1;" vertex="1" parent="1">
          <mxGeometry x="150" y="770" width="210" height="30" as="geometry" />
        </mxCell>
        <mxCell id="r2m8VjiUt9aS7Ca-MvFo-27" style="edgeStyle=orthogonalEdgeStyle;rounded=0;orthogonalLoop=1;jettySize=auto;html=1;entryX=0.5;entryY=1;entryDx=0;entryDy=0;" edge="1" parent="1" source="r2m8VjiUt9aS7Ca-MvFo-28" target="r2m8VjiUt9aS7Ca-MvFo-30">
          <mxGeometry relative="1" as="geometry" />
        </mxCell>
        <mxCell id="r2m8VjiUt9aS7Ca-MvFo-28" value="&lt;span style=&quot;text-align: start;&quot;&gt;&lt;font style=&quot;font-size: 14px;&quot; face=&quot;Helvetica&quot;&gt;Н_ВЕДОМОСТИ&lt;/font&gt;&lt;/span&gt;&lt;span style=&quot;font-size: medium; text-align: start;&quot;&gt;&lt;/span&gt;&lt;br&gt;&lt;span style=&quot;font-size: medium; text-align: start;&quot;&gt;&lt;/span&gt;" style="rounded=0;whiteSpace=wrap;html=1;" vertex="1" parent="1">
          <mxGeometry x="423" y="770" width="210" height="30" as="geometry" />
        </mxCell>
        <mxCell id="r2m8VjiUt9aS7Ca-MvFo-29" style="edgeStyle=orthogonalEdgeStyle;rounded=0;orthogonalLoop=1;jettySize=auto;html=1;entryX=0.5;entryY=1;entryDx=0;entryDy=0;" edge="1" parent="1" source="r2m8VjiUt9aS7Ca-MvFo-30" target="r2m8VjiUt9aS7Ca-MvFo-22">
          <mxGeometry relative="1" as="geometry" />
        </mxCell>
        <mxCell id="r2m8VjiUt9aS7Ca-MvFo-30" value="&lt;p&gt;&lt;span style=&quot;font-size: 14px; text-align: left; background-color: rgb(255, 255, 255);&quot;&gt;δ(&lt;/span&gt;&lt;span style=&quot;text-align: start;&quot;&gt;&lt;font style=&quot;font-size: 14px;&quot; face=&quot;Helvetica&quot;&gt;&lt;span style=&quot;background-color: rgb(255, 255, 255);&quot;&gt;Н_ВЕ&lt;/span&gt;ДОМОСТИ&lt;/font&gt;&lt;/span&gt;&lt;span style=&quot;background-color: initial; text-align: start; font-size: 10pt; color: rgb(8, 8, 8);&quot;&gt;.&lt;/span&gt;&lt;span style=&quot;background-color: initial; text-align: start; font-size: 10pt; color: rgb(135, 16, 148);&quot;&gt;ЧЛВК_ИД&lt;/span&gt;&lt;span style=&quot;background-color: initial; text-align: start; font-size: 10pt; color: rgb(8, 8, 8);&quot;&gt;=&lt;/span&gt;&lt;span style=&quot;background-color: initial; text-align: start; font-size: 10pt; color: rgb(23, 80, 235);&quot;&gt;16324&lt;/span&gt;&lt;span style=&quot;background-color: initial; font-size: 14px; text-align: start;&quot;&gt;)&lt;/span&gt;&lt;/p&gt;&lt;span style=&quot;font-size: medium; text-align: start;&quot;&gt;&lt;/span&gt;" style="rounded=0;whiteSpace=wrap;html=1;" vertex="1" parent="1">
          <mxGeometry x="398" y="700" width="260" height="30" as="geometry" />
        </mxCell>
        <mxCell id="r2m8VjiUt9aS7Ca-MvFo-33" style="edgeStyle=orthogonalEdgeStyle;rounded=0;orthogonalLoop=1;jettySize=auto;html=1;entryX=0.5;entryY=1;entryDx=0;entryDy=0;" edge="1" parent="1" source="r2m8VjiUt9aS7Ca-MvFo-32" target="r2m8VjiUt9aS7Ca-MvFo-22">
          <mxGeometry relative="1" as="geometry" />
        </mxCell>
        <mxCell id="r2m8VjiUt9aS7Ca-MvFo-32" value="&lt;font face=&quot;Helvetica&quot; style=&quot;font-size: 14px;&quot;&gt;&lt;span style=&quot;text-align: left; background-color: rgb(255, 255, 255);&quot;&gt;δ&lt;/span&gt;(&lt;span style=&quot;text-align: start;&quot;&gt;Н_ТИПЫ_ВЕДОМОСТЕЙ&lt;/span&gt;&lt;span style=&quot;text-align: start; color: rgb(8, 8, 8);&quot;&gt;.&lt;/span&gt;&lt;/font&gt;&lt;div&gt;&lt;font face=&quot;Helvetica&quot; style=&quot;font-size: 14px;&quot;&gt;&lt;span style=&quot;text-align: start; color: rgb(135, 16, 148);&quot;&gt;НАИМЕНОВАНИЕ&lt;/span&gt;&lt;/font&gt;&lt;span style=&quot;font-size: 14px; background-color: initial; text-align: start; color: rgb(8, 8, 8);&quot;&gt;=&lt;/span&gt;&lt;span style=&quot;font-size: 14px; background-color: initial; text-align: start; color: rgb(6, 125, 23);&quot;&gt;&#39;Ведомость&#39;&lt;/span&gt;&lt;span style=&quot;font-size: 14px; background-color: initial; text-align: start;&quot;&gt;&lt;/span&gt;&lt;span style=&quot;font-size: 14px; background-color: initial;&quot;&gt;)&lt;/span&gt;&lt;/div&gt;" style="rounded=0;whiteSpace=wrap;html=1;" vertex="1" parent="1">
          <mxGeometry x="153" y="700" width="222" height="40" as="geometry" />
        </mxCell>
        <mxCell id="r2m8VjiUt9aS7Ca-MvFo-34" style="edgeStyle=orthogonalEdgeStyle;rounded=0;orthogonalLoop=1;jettySize=auto;html=1;entryX=0.459;entryY=1.019;entryDx=0;entryDy=0;entryPerimeter=0;" edge="1" parent="1" source="r2m8VjiUt9aS7Ca-MvFo-24" target="r2m8VjiUt9aS7Ca-MvFo-32">
          <mxGeometry relative="1" as="geometry" />
        </mxCell>
        <mxCell id="r2m8VjiUt9aS7Ca-MvFo-39" value="&lt;font style=&quot;font-size: 14px;&quot;&gt;result&lt;/font&gt;" style="rounded=0;whiteSpace=wrap;html=1;" vertex="1" parent="1">
          <mxGeometry x="890.5" y="-30" width="60" height="30" as="geometry" />
        </mxCell>
        <mxCell id="r2m8VjiUt9aS7Ca-MvFo-40" style="edgeStyle=orthogonalEdgeStyle;rounded=0;orthogonalLoop=1;jettySize=auto;html=1;entryX=0.5;entryY=1;entryDx=0;entryDy=0;" edge="1" parent="1" source="r2m8VjiUt9aS7Ca-MvFo-41" target="r2m8VjiUt9aS7Ca-MvFo-39">
          <mxGeometry relative="1" as="geometry" />
        </mxCell>
        <mxCell id="r2m8VjiUt9aS7Ca-MvFo-41" value="&lt;font face=&quot;Helvetica&quot; style=&quot;font-size: 14px;&quot;&gt;π(&lt;span style=&quot;text-align: start;&quot;&gt;Н_ТИПЫ_ВЕДОМОСТЕЙ&lt;/span&gt;&lt;span style=&quot;text-align: start; color: rgb(8, 8, 8);&quot;&gt;.&lt;/span&gt;&lt;span style=&quot;text-align: start; color: rgb(135, 16, 148);&quot;&gt;НАИМЕНОВАНИЕ&lt;/span&gt;&lt;span style=&quot;text-align: start; color: rgb(8, 8, 8);&quot;&gt;, &lt;/span&gt;&lt;span style=&quot;text-align: start;&quot;&gt;Н_ВЕДОМОСТИ&lt;/span&gt;&lt;span style=&quot;text-align: start; color: rgb(8, 8, 8);&quot;&gt;.&lt;/span&gt;&lt;span style=&quot;text-align: start; color: rgb(135, 16, 148);&quot;&gt;ИД&lt;/span&gt;&lt;span style=&quot;text-align: start;&quot;&gt;&lt;/span&gt;)&lt;/font&gt;" style="rounded=0;whiteSpace=wrap;html=1;" vertex="1" parent="1">
          <mxGeometry x="747.25" y="30" width="346.5" height="50" as="geometry" />
        </mxCell>
        <mxCell id="r2m8VjiUt9aS7Ca-MvFo-42" style="edgeStyle=orthogonalEdgeStyle;rounded=0;orthogonalLoop=1;jettySize=auto;html=1;entryX=0.5;entryY=1;entryDx=0;entryDy=0;" edge="1" parent="1" source="r2m8VjiUt9aS7Ca-MvFo-43" target="r2m8VjiUt9aS7Ca-MvFo-41">
          <mxGeometry relative="1" as="geometry">
            <mxPoint x="920.5" y="70.00000000000011" as="targetPoint" />
          </mxGeometry>
        </mxCell>
        <mxCell id="r2m8VjiUt9aS7Ca-MvFo-43" value="&lt;font face=&quot;Helvetica&quot; style=&quot;font-size: 14px;&quot;&gt;&lt;font style=&quot;&quot;&gt;⋈(&lt;/font&gt;&lt;span style=&quot;text-align: start;&quot;&gt;Н_ТИПЫ_ВЕДОМОСТЕЙ&lt;/span&gt;&lt;span style=&quot;text-align: start; color: rgb(8, 8, 8);&quot;&gt;.&lt;/span&gt;&lt;span style=&quot;text-align: start; color: rgb(135, 16, 148);&quot;&gt;ИД &lt;/span&gt;&lt;span style=&quot;text-align: start; color: rgb(8, 8, 8);&quot;&gt;= &lt;/span&gt;&lt;span style=&quot;text-align: start;&quot;&gt;Н_ВЕДОМОСТИ&lt;/span&gt;&lt;span style=&quot;text-align: start; color: rgb(8, 8, 8);&quot;&gt;.&lt;/span&gt;&lt;span style=&quot;text-align: start; color: rgb(135, 16, 148);&quot;&gt;ТВ_ИД&lt;/span&gt;&lt;span style=&quot;text-align: start;&quot;&gt;&lt;/span&gt;&lt;font style=&quot;&quot;&gt;)&lt;/font&gt;&lt;/font&gt;" style="rounded=0;whiteSpace=wrap;html=1;" vertex="1" parent="1">
          <mxGeometry x="790" y="100" width="261" height="40" as="geometry" />
        </mxCell>
        <mxCell id="r2m8VjiUt9aS7Ca-MvFo-63" style="edgeStyle=orthogonalEdgeStyle;rounded=0;orthogonalLoop=1;jettySize=auto;html=1;entryX=0.5;entryY=1;entryDx=0;entryDy=0;" edge="1" parent="1" source="r2m8VjiUt9aS7Ca-MvFo-44" target="r2m8VjiUt9aS7Ca-MvFo-62">
          <mxGeometry relative="1" as="geometry" />
        </mxCell>
        <mxCell id="r2m8VjiUt9aS7Ca-MvFo-44" value="&lt;span style=&quot;text-align: start;&quot;&gt;&lt;font face=&quot;Helvetica&quot; style=&quot;font-size: 14px;&quot;&gt;Н_УЧЕНИКИ&lt;/font&gt;&lt;/span&gt;&lt;span style=&quot;font-size: medium; text-align: start;&quot;&gt;&lt;/span&gt;&lt;br&gt;&lt;span style=&quot;font-size: medium; text-align: start;&quot;&gt;&lt;/span&gt;" style="rounded=0;whiteSpace=wrap;html=1;" vertex="1" parent="1">
          <mxGeometry x="1454.5" y="652.5" width="210" height="35" as="geometry" />
        </mxCell>
        <mxCell id="r2m8VjiUt9aS7Ca-MvFo-47" style="edgeStyle=orthogonalEdgeStyle;rounded=0;orthogonalLoop=1;jettySize=auto;html=1;entryX=0.5;entryY=1;entryDx=0;entryDy=0;" edge="1" parent="1" source="r2m8VjiUt9aS7Ca-MvFo-48" target="r2m8VjiUt9aS7Ca-MvFo-43">
          <mxGeometry relative="1" as="geometry" />
        </mxCell>
        <mxCell id="r2m8VjiUt9aS7Ca-MvFo-48" value="&lt;p&gt;&lt;span style=&quot;font-size: 14px; text-align: left; background-color: rgb(255, 255, 255);&quot;&gt;δ(&lt;/span&gt;&lt;span style=&quot;text-align: start;&quot;&gt;&lt;font style=&quot;font-size: 14px;&quot; face=&quot;Helvetica&quot;&gt;&lt;span style=&quot;background-color: rgb(255, 255, 255);&quot;&gt;Н_ВЕ&lt;/span&gt;ДОМОСТИ&lt;/font&gt;&lt;/span&gt;&lt;span style=&quot;background-color: initial; text-align: start; font-size: 10pt; color: rgb(8, 8, 8);&quot;&gt;.&lt;/span&gt;&lt;span style=&quot;background-color: initial; text-align: start; font-size: 10pt; color: rgb(135, 16, 148);&quot;&gt;ЧЛВК_ИД&lt;/span&gt;&lt;span style=&quot;background-color: initial; text-align: start; font-size: 10pt; color: rgb(8, 8, 8);&quot;&gt;=&lt;/span&gt;&lt;span style=&quot;background-color: initial; text-align: start; font-size: 10pt; color: rgb(23, 80, 235);&quot;&gt;16324&lt;/span&gt;&lt;span style=&quot;background-color: initial; font-size: 14px; text-align: start;&quot;&gt;)&lt;/span&gt;&lt;/p&gt;&lt;span style=&quot;font-size: medium; text-align: start;&quot;&gt;&lt;/span&gt;" style="rounded=0;whiteSpace=wrap;html=1;" vertex="1" parent="1">
          <mxGeometry x="945" y="180" width="260" height="30" as="geometry" />
        </mxCell>
        <mxCell id="r2m8VjiUt9aS7Ca-MvFo-49" style="edgeStyle=orthogonalEdgeStyle;rounded=0;orthogonalLoop=1;jettySize=auto;html=1;entryX=0.5;entryY=1;entryDx=0;entryDy=0;" edge="1" parent="1" source="r2m8VjiUt9aS7Ca-MvFo-50" target="r2m8VjiUt9aS7Ca-MvFo-43">
          <mxGeometry relative="1" as="geometry" />
        </mxCell>
        <mxCell id="r2m8VjiUt9aS7Ca-MvFo-50" value="&lt;font face=&quot;Helvetica&quot; style=&quot;font-size: 14px;&quot;&gt;&lt;span style=&quot;text-align: left; background-color: rgb(255, 255, 255);&quot;&gt;δ&lt;/span&gt;(&lt;span style=&quot;text-align: start;&quot;&gt;Н_ТИПЫ_ВЕДОМОСТЕЙ&lt;/span&gt;&lt;span style=&quot;text-align: start; color: rgb(8, 8, 8);&quot;&gt;.&lt;/span&gt;&lt;/font&gt;&lt;div&gt;&lt;font face=&quot;Helvetica&quot; style=&quot;font-size: 14px;&quot;&gt;&lt;span style=&quot;text-align: start; color: rgb(135, 16, 148);&quot;&gt;НАИМЕНОВАНИЕ&lt;/span&gt;&lt;/font&gt;&lt;span style=&quot;font-size: 14px; background-color: initial; text-align: start; color: rgb(8, 8, 8);&quot;&gt;=&lt;/span&gt;&lt;span style=&quot;font-size: 14px; background-color: initial; text-align: start; color: rgb(6, 125, 23);&quot;&gt;&#39;Ведомость&#39;&lt;/span&gt;&lt;span style=&quot;font-size: 14px; background-color: initial; text-align: start;&quot;&gt;&lt;/span&gt;&lt;span style=&quot;font-size: 14px; background-color: initial;&quot;&gt;)&lt;/span&gt;&lt;/div&gt;" style="rounded=0;whiteSpace=wrap;html=1;" vertex="1" parent="1">
          <mxGeometry x="700" y="180" width="222" height="40" as="geometry" />
        </mxCell>
        <mxCell id="r2m8VjiUt9aS7Ca-MvFo-56" style="edgeStyle=orthogonalEdgeStyle;rounded=0;orthogonalLoop=1;jettySize=auto;html=1;entryX=0.5;entryY=1;entryDx=0;entryDy=0;" edge="1" parent="1" source="r2m8VjiUt9aS7Ca-MvFo-52" target="r2m8VjiUt9aS7Ca-MvFo-55">
          <mxGeometry relative="1" as="geometry" />
        </mxCell>
        <mxCell id="r2m8VjiUt9aS7Ca-MvFo-52" value="&lt;span style=&quot;text-align: start;&quot;&gt;&lt;font style=&quot;font-size: 14px;&quot; face=&quot;Helvetica&quot;&gt;Н_ЛЮДИ&lt;/font&gt;&lt;/span&gt;&lt;br&gt;&lt;span style=&quot;font-size: medium; text-align: start;&quot;&gt;&lt;/span&gt;" style="rounded=0;whiteSpace=wrap;html=1;" vertex="1" parent="1">
          <mxGeometry x="954.5" y="715" width="210" height="35" as="geometry" />
        </mxCell>
        <mxCell id="r2m8VjiUt9aS7Ca-MvFo-58" style="edgeStyle=orthogonalEdgeStyle;rounded=0;orthogonalLoop=1;jettySize=auto;html=1;entryX=0.5;entryY=1;entryDx=0;entryDy=0;" edge="1" parent="1" source="r2m8VjiUt9aS7Ca-MvFo-53" target="r2m8VjiUt9aS7Ca-MvFo-57">
          <mxGeometry relative="1" as="geometry" />
        </mxCell>
        <mxCell id="r2m8VjiUt9aS7Ca-MvFo-53" value="&lt;span style=&quot;text-align: start;&quot;&gt;&lt;font style=&quot;font-size: 14px;&quot; face=&quot;Helvetica&quot;&gt;Н_ОБУЧЕНИЯ&lt;/font&gt;&lt;/span&gt;&lt;br&gt;&lt;span style=&quot;font-size: medium; text-align: start;&quot;&gt;&lt;/span&gt;" style="rounded=0;whiteSpace=wrap;html=1;" vertex="1" parent="1">
          <mxGeometry x="1210.5" y="715" width="210" height="35" as="geometry" />
        </mxCell>
        <mxCell id="r2m8VjiUt9aS7Ca-MvFo-60" style="edgeStyle=orthogonalEdgeStyle;rounded=0;orthogonalLoop=1;jettySize=auto;html=1;entryX=0.5;entryY=1;entryDx=0;entryDy=0;" edge="1" parent="1" source="r2m8VjiUt9aS7Ca-MvFo-55" target="r2m8VjiUt9aS7Ca-MvFo-59">
          <mxGeometry relative="1" as="geometry" />
        </mxCell>
        <mxCell id="r2m8VjiUt9aS7Ca-MvFo-55" value="&lt;font style=&quot;font-size: 14px;&quot; face=&quot;Helvetica&quot;&gt;&lt;font style=&quot;&quot;&gt;&lt;span style=&quot;text-align: left; background-color: rgb(255, 255, 255);&quot;&gt;δ&lt;/span&gt;(&lt;/font&gt;&lt;span style=&quot;text-align: start;&quot;&gt;Н_ЛЮДИ&lt;/span&gt;&lt;span style=&quot;text-align: start; color: rgb(8, 8, 8);&quot;&gt;.&lt;/span&gt;&lt;span style=&quot;text-align: start; color: rgb(135, 16, 148);&quot;&gt;ФАМИЛИЯ &lt;/span&gt;&lt;span style=&quot;text-align: start; color: rgb(8, 8, 8);&quot;&gt;&amp;lt; &lt;/span&gt;&lt;span style=&quot;text-align: start; color: rgb(6, 125, 23);&quot;&gt;&#39;Петров&#39;&lt;/span&gt;&lt;span style=&quot;text-align: start;&quot;&gt;&lt;/span&gt;&lt;span style=&quot;background-color: initial;&quot;&gt;)&lt;/span&gt;&lt;/font&gt;" style="rounded=0;whiteSpace=wrap;html=1;" vertex="1" parent="1">
          <mxGeometry x="940" y="650" width="238" height="40" as="geometry" />
        </mxCell>
        <mxCell id="r2m8VjiUt9aS7Ca-MvFo-61" style="edgeStyle=orthogonalEdgeStyle;rounded=0;orthogonalLoop=1;jettySize=auto;html=1;entryX=0.5;entryY=1;entryDx=0;entryDy=0;" edge="1" parent="1" source="r2m8VjiUt9aS7Ca-MvFo-57" target="r2m8VjiUt9aS7Ca-MvFo-59">
          <mxGeometry relative="1" as="geometry" />
        </mxCell>
        <mxCell id="r2m8VjiUt9aS7Ca-MvFo-57" value="&lt;font face=&quot;Helvetica&quot; style=&quot;font-size: 14px;&quot;&gt;&lt;span style=&quot;text-align: left; background-color: rgb(255, 255, 255);&quot;&gt;δ&lt;/span&gt;(&lt;span style=&quot;text-align: start;&quot;&gt;Н_ОБУЧЕНИЯ&lt;/span&gt;&lt;span style=&quot;text-align: start; color: rgb(8, 8, 8);&quot;&gt;.&lt;/span&gt;&lt;span style=&quot;text-align: start; color: rgb(135, 16, 148);&quot;&gt;ЧЛВК_ИД &lt;/span&gt;&lt;span style=&quot;text-align: start; color: rgb(8, 8, 8);&quot;&gt;= &lt;/span&gt;&lt;span style=&quot;text-align: start; color: rgb(23, 80, 235);&quot;&gt;105590&lt;/span&gt;&lt;span style=&quot;text-align: start;&quot;&gt;&lt;/span&gt;&lt;span style=&quot;background-color: initial;&quot;&gt;)&lt;/span&gt;&lt;/font&gt;" style="rounded=0;whiteSpace=wrap;html=1;" vertex="1" parent="1">
          <mxGeometry x="1204.5" y="650" width="222" height="40" as="geometry" />
        </mxCell>
        <mxCell id="r2m8VjiUt9aS7Ca-MvFo-66" style="edgeStyle=orthogonalEdgeStyle;rounded=0;orthogonalLoop=1;jettySize=auto;html=1;entryX=0.5;entryY=1;entryDx=0;entryDy=0;" edge="1" parent="1" source="r2m8VjiUt9aS7Ca-MvFo-59" target="r2m8VjiUt9aS7Ca-MvFo-64">
          <mxGeometry relative="1" as="geometry" />
        </mxCell>
        <mxCell id="r2m8VjiUt9aS7Ca-MvFo-59" value="&lt;font face=&quot;Helvetica&quot; style=&quot;font-size: 14px;&quot;&gt;&lt;font style=&quot;&quot;&gt;⋈(&lt;/font&gt;&lt;/font&gt;&lt;font face=&quot;Helvetica&quot; style=&quot;font-size: 14px;&quot;&gt;&lt;span style=&quot;text-align: start;&quot;&gt;Н_ЛЮДИ &lt;/span&gt;&lt;span style=&quot;text-align: start; color: rgb(0, 51, 179);&quot;&gt;ON &lt;/span&gt;&lt;span style=&quot;text-align: start;&quot;&gt;Н_ЛЮДИ&lt;/span&gt;&lt;span style=&quot;text-align: start; color: rgb(8, 8, 8);&quot;&gt;.&lt;/span&gt;&lt;span style=&quot;text-align: start; color: rgb(135, 16, 148);&quot;&gt;ИД &lt;/span&gt;&lt;span style=&quot;text-align: start; color: rgb(8, 8, 8);&quot;&gt;= &lt;/span&gt;&lt;span style=&quot;text-align: start;&quot;&gt;Н_ОБУЧЕНИЯ&lt;/span&gt;&lt;span style=&quot;text-align: start; color: rgb(8, 8, 8);&quot;&gt;.&lt;/span&gt;&lt;span style=&quot;text-align: start; color: rgb(135, 16, 148);&quot;&gt;ЧЛВК_ИД&lt;/span&gt;&lt;/font&gt;&lt;span style=&quot;font-size: medium; text-align: start;&quot;&gt;&lt;/span&gt;&lt;font face=&quot;Helvetica&quot; style=&quot;font-size: 14px;&quot;&gt;&lt;font style=&quot;&quot;&gt;)&lt;/font&gt;&lt;/font&gt;" style="rounded=0;whiteSpace=wrap;html=1;" vertex="1" parent="1">
          <mxGeometry x="1054.5" y="570" width="261" height="40" as="geometry" />
        </mxCell>
        <mxCell id="r2m8VjiUt9aS7Ca-MvFo-65" style="edgeStyle=orthogonalEdgeStyle;rounded=0;orthogonalLoop=1;jettySize=auto;html=1;entryX=0.5;entryY=1;entryDx=0;entryDy=0;" edge="1" parent="1" source="r2m8VjiUt9aS7Ca-MvFo-62" target="r2m8VjiUt9aS7Ca-MvFo-64">
          <mxGeometry relative="1" as="geometry" />
        </mxCell>
        <mxCell id="r2m8VjiUt9aS7Ca-MvFo-62" value="&lt;font face=&quot;Helvetica&quot; style=&quot;font-size: 14px;&quot;&gt;&lt;span style=&quot;text-align: left; background-color: rgb(255, 255, 255);&quot;&gt;δ&lt;/span&gt;(&lt;/font&gt;&lt;font style=&quot;font-size: 14px;&quot;&gt;&lt;span style=&quot;text-align: start;&quot;&gt;Н_УЧЕНИКИ&lt;/span&gt;&lt;span style=&quot;text-align: start; color: rgb(8, 8, 8);&quot;&gt;.&lt;/span&gt;&lt;span style=&quot;text-align: start; color: rgb(135, 16, 148);&quot;&gt;ИД &lt;/span&gt;&lt;span style=&quot;text-align: start; color: rgb(8, 8, 8);&quot;&gt;&amp;gt; &lt;/span&gt;&lt;span style=&quot;text-align: start; color: rgb(23, 80, 235);&quot;&gt;150308&lt;/span&gt;&lt;/font&gt;&lt;span style=&quot;font-size: medium; text-align: start;&quot;&gt;&lt;/span&gt;&lt;font face=&quot;Helvetica&quot; style=&quot;font-size: 14px;&quot;&gt;&lt;span style=&quot;background-color: initial;&quot;&gt;)&lt;/span&gt;&lt;/font&gt;" style="rounded=0;whiteSpace=wrap;html=1;" vertex="1" parent="1">
          <mxGeometry x="1448.5" y="570" width="222" height="40" as="geometry" />
        </mxCell>
        <mxCell id="r2m8VjiUt9aS7Ca-MvFo-68" style="edgeStyle=orthogonalEdgeStyle;rounded=0;orthogonalLoop=1;jettySize=auto;html=1;entryX=0.5;entryY=1;entryDx=0;entryDy=0;" edge="1" parent="1" source="r2m8VjiUt9aS7Ca-MvFo-64" target="r2m8VjiUt9aS7Ca-MvFo-67">
          <mxGeometry relative="1" as="geometry" />
        </mxCell>
        <mxCell id="r2m8VjiUt9aS7Ca-MvFo-64" value="&lt;font face=&quot;Helvetica&quot; style=&quot;font-size: 14px;&quot;&gt;&lt;font style=&quot;&quot;&gt;⋈(&lt;/font&gt;&lt;/font&gt;&lt;font face=&quot;Helvetica&quot; style=&quot;font-size: 14px;&quot;&gt;&lt;span style=&quot;text-align: start;&quot;&gt;Н_УЧЕНИКИ &lt;/span&gt;&lt;span style=&quot;text-align: start; color: rgb(0, 51, 179);&quot;&gt;ON &lt;/span&gt;&lt;span style=&quot;text-align: start;&quot;&gt;Н_УЧЕНИКИ&lt;/span&gt;&lt;span style=&quot;text-align: start; color: rgb(8, 8, 8);&quot;&gt;.&lt;/span&gt;&lt;span style=&quot;text-align: start; color: rgb(135, 16, 148);&quot;&gt;ЧЛВК_ИД &lt;/span&gt;&lt;span style=&quot;text-align: start; color: rgb(8, 8, 8);&quot;&gt;= &lt;/span&gt;&lt;span style=&quot;text-align: start;&quot;&gt;Н_ОБУЧЕНИЯ&lt;/span&gt;&lt;span style=&quot;text-align: start; color: rgb(8, 8, 8);&quot;&gt;.&lt;/span&gt;&lt;span style=&quot;text-align: start; color: rgb(135, 16, 148);&quot;&gt;ЧЛВК_ИД&lt;/span&gt;&lt;/font&gt;&lt;span style=&quot;font-size: medium; text-align: start;&quot;&gt;&lt;/span&gt;&lt;font face=&quot;Helvetica&quot; style=&quot;font-size: 14px;&quot;&gt;&lt;font style=&quot;&quot;&gt;)&lt;/font&gt;&lt;/font&gt;" style="rounded=0;whiteSpace=wrap;html=1;" vertex="1" parent="1">
          <mxGeometry x="1238" y="490" width="296.5" height="40" as="geometry" />
        </mxCell>
        <mxCell id="r2m8VjiUt9aS7Ca-MvFo-70" style="edgeStyle=orthogonalEdgeStyle;rounded=0;orthogonalLoop=1;jettySize=auto;html=1;" edge="1" parent="1" source="r2m8VjiUt9aS7Ca-MvFo-67" target="r2m8VjiUt9aS7Ca-MvFo-69">
          <mxGeometry relative="1" as="geometry" />
        </mxCell>
        <mxCell id="r2m8VjiUt9aS7Ca-MvFo-67" value="&lt;font face=&quot;Helvetica&quot; style=&quot;font-size: 14px;&quot;&gt;π(&lt;/font&gt;&lt;font face=&quot;Helvetica&quot; style=&quot;font-size: 14px;&quot;&gt;&lt;span style=&quot;text-align: start;&quot;&gt;Н_ЛЮДИ&lt;/span&gt;&lt;span style=&quot;text-align: start; color: rgb(8, 8, 8);&quot;&gt;.&lt;/span&gt;&lt;span style=&quot;text-align: start; color: rgb(135, 16, 148);&quot;&gt;ФАМИЛИЯ&lt;/span&gt;&lt;span style=&quot;text-align: start; color: rgb(8, 8, 8);&quot;&gt;, &lt;/span&gt;&lt;span style=&quot;text-align: start;&quot;&gt;Н_ОБУЧЕНИЯ&lt;/span&gt;&lt;span style=&quot;text-align: start; color: rgb(8, 8, 8);&quot;&gt;.&lt;/span&gt;&lt;span style=&quot;text-align: start; color: rgb(135, 16, 148);&quot;&gt;НЗК&lt;/span&gt;&lt;span style=&quot;text-align: start; color: rgb(8, 8, 8);&quot;&gt;, &lt;/span&gt;&lt;span style=&quot;text-align: start;&quot;&gt;Н_УЧЕНИКИ&lt;/span&gt;&lt;span style=&quot;text-align: start; color: rgb(8, 8, 8);&quot;&gt;.&lt;/span&gt;&lt;span style=&quot;text-align: start; color: rgb(135, 16, 148);&quot;&gt;ИД&lt;/span&gt;&lt;/font&gt;&lt;span style=&quot;font-size: medium; text-align: start;&quot;&gt;&lt;/span&gt;&lt;font face=&quot;Helvetica&quot; style=&quot;font-size: 14px;&quot;&gt;)&lt;/font&gt;" style="rounded=0;whiteSpace=wrap;html=1;" vertex="1" parent="1">
          <mxGeometry x="1213" y="410" width="346.5" height="50" as="geometry" />
        </mxCell>
        <mxCell id="r2m8VjiUt9aS7Ca-MvFo-69" value="&lt;font style=&quot;font-size: 14px;&quot;&gt;result&lt;/font&gt;" style="rounded=0;whiteSpace=wrap;html=1;" vertex="1" parent="1">
          <mxGeometry x="1356.25" y="350" width="60" height="30" as="geometry" />
        </mxCell>
        <mxCell id="r2m8VjiUt9aS7Ca-MvFo-90" style="edgeStyle=orthogonalEdgeStyle;rounded=0;orthogonalLoop=1;jettySize=auto;html=1;entryX=0.5;entryY=1;entryDx=0;entryDy=0;" edge="1" parent="1" source="r2m8VjiUt9aS7Ca-MvFo-91" target="r2m8VjiUt9aS7Ca-MvFo-103">
          <mxGeometry relative="1" as="geometry" />
        </mxCell>
        <mxCell id="r2m8VjiUt9aS7Ca-MvFo-91" value="&lt;span style=&quot;text-align: start;&quot;&gt;&lt;font face=&quot;Helvetica&quot; style=&quot;font-size: 14px;&quot;&gt;Н_УЧЕНИКИ&lt;/font&gt;&lt;/span&gt;&lt;span style=&quot;font-size: medium; text-align: start;&quot;&gt;&lt;/span&gt;&lt;br&gt;&lt;span style=&quot;font-size: medium; text-align: start;&quot;&gt;&lt;/span&gt;" style="rounded=0;whiteSpace=wrap;html=1;" vertex="1" parent="1">
          <mxGeometry x="1454.5" y="1202.5" width="210" height="35" as="geometry" />
        </mxCell>
        <mxCell id="r2m8VjiUt9aS7Ca-MvFo-109" style="edgeStyle=orthogonalEdgeStyle;rounded=0;orthogonalLoop=1;jettySize=auto;html=1;entryX=0.5;entryY=1;entryDx=0;entryDy=0;" edge="1" parent="1" source="r2m8VjiUt9aS7Ca-MvFo-93" target="r2m8VjiUt9aS7Ca-MvFo-101">
          <mxGeometry relative="1" as="geometry" />
        </mxCell>
        <mxCell id="r2m8VjiUt9aS7Ca-MvFo-93" value="&lt;span style=&quot;text-align: start;&quot;&gt;&lt;font style=&quot;font-size: 14px;&quot; face=&quot;Helvetica&quot;&gt;Н_ЛЮДИ&lt;/font&gt;&lt;/span&gt;&lt;br&gt;&lt;span style=&quot;font-size: medium; text-align: start;&quot;&gt;&lt;/span&gt;" style="rounded=0;whiteSpace=wrap;html=1;" vertex="1" parent="1">
          <mxGeometry x="969.75" y="1202.5" width="210" height="35" as="geometry" />
        </mxCell>
        <mxCell id="r2m8VjiUt9aS7Ca-MvFo-110" style="edgeStyle=orthogonalEdgeStyle;rounded=0;orthogonalLoop=1;jettySize=auto;html=1;entryX=0.5;entryY=1;entryDx=0;entryDy=0;" edge="1" parent="1" source="r2m8VjiUt9aS7Ca-MvFo-95" target="r2m8VjiUt9aS7Ca-MvFo-101">
          <mxGeometry relative="1" as="geometry" />
        </mxCell>
        <mxCell id="r2m8VjiUt9aS7Ca-MvFo-95" value="&lt;span style=&quot;text-align: start;&quot;&gt;&lt;font style=&quot;font-size: 14px;&quot; face=&quot;Helvetica&quot;&gt;Н_ОБУЧЕНИЯ&lt;/font&gt;&lt;/span&gt;&lt;br&gt;&lt;span style=&quot;font-size: medium; text-align: start;&quot;&gt;&lt;/span&gt;" style="rounded=0;whiteSpace=wrap;html=1;" vertex="1" parent="1">
          <mxGeometry x="1202.75" y="1202.5" width="210" height="35" as="geometry" />
        </mxCell>
        <mxCell id="r2m8VjiUt9aS7Ca-MvFo-112" style="edgeStyle=orthogonalEdgeStyle;rounded=0;orthogonalLoop=1;jettySize=auto;html=1;entryX=0.5;entryY=1;entryDx=0;entryDy=0;" edge="1" parent="1" source="r2m8VjiUt9aS7Ca-MvFo-97" target="r2m8VjiUt9aS7Ca-MvFo-99">
          <mxGeometry relative="1" as="geometry" />
        </mxCell>
        <mxCell id="r2m8VjiUt9aS7Ca-MvFo-97" value="&lt;font style=&quot;font-size: 14px;&quot; face=&quot;Helvetica&quot;&gt;&lt;font style=&quot;&quot;&gt;&lt;span style=&quot;text-align: left; background-color: rgb(255, 255, 255);&quot;&gt;δ&lt;/span&gt;(&lt;/font&gt;&lt;span style=&quot;text-align: start;&quot;&gt;Н_ЛЮДИ&lt;/span&gt;&lt;span style=&quot;text-align: start; color: rgb(8, 8, 8);&quot;&gt;.&lt;/span&gt;&lt;span style=&quot;text-align: start; color: rgb(135, 16, 148);&quot;&gt;ФАМИЛИЯ &lt;/span&gt;&lt;span style=&quot;text-align: start; color: rgb(8, 8, 8);&quot;&gt;&amp;lt; &lt;/span&gt;&lt;span style=&quot;text-align: start; color: rgb(6, 125, 23);&quot;&gt;&#39;Петров&#39;&lt;/span&gt;&lt;span style=&quot;text-align: start;&quot;&gt;&lt;/span&gt;&lt;span style=&quot;background-color: initial;&quot;&gt;)&lt;/span&gt;&lt;/font&gt;" style="rounded=0;whiteSpace=wrap;html=1;" vertex="1" parent="1">
          <mxGeometry x="1267.25" y="980" width="238" height="40" as="geometry" />
        </mxCell>
        <mxCell id="r2m8VjiUt9aS7Ca-MvFo-113" style="edgeStyle=orthogonalEdgeStyle;rounded=0;orthogonalLoop=1;jettySize=auto;html=1;" edge="1" parent="1" source="r2m8VjiUt9aS7Ca-MvFo-99" target="r2m8VjiUt9aS7Ca-MvFo-107">
          <mxGeometry relative="1" as="geometry" />
        </mxCell>
        <mxCell id="r2m8VjiUt9aS7Ca-MvFo-99" value="&lt;font face=&quot;Helvetica&quot; style=&quot;font-size: 14px;&quot;&gt;&lt;span style=&quot;text-align: left; background-color: rgb(255, 255, 255);&quot;&gt;δ&lt;/span&gt;(&lt;span style=&quot;text-align: start;&quot;&gt;Н_ОБУЧЕНИЯ&lt;/span&gt;&lt;span style=&quot;text-align: start; color: rgb(8, 8, 8);&quot;&gt;.&lt;/span&gt;&lt;span style=&quot;text-align: start; color: rgb(135, 16, 148);&quot;&gt;ЧЛВК_ИД &lt;/span&gt;&lt;span style=&quot;text-align: start; color: rgb(8, 8, 8);&quot;&gt;= &lt;/span&gt;&lt;span style=&quot;text-align: start; color: rgb(23, 80, 235);&quot;&gt;105590&lt;/span&gt;&lt;span style=&quot;text-align: start;&quot;&gt;&lt;/span&gt;&lt;span style=&quot;background-color: initial;&quot;&gt;)&lt;/span&gt;&lt;/font&gt;" style="rounded=0;whiteSpace=wrap;html=1;" vertex="1" parent="1">
          <mxGeometry x="1275.25" y="920" width="222" height="40" as="geometry" />
        </mxCell>
        <mxCell id="r2m8VjiUt9aS7Ca-MvFo-100" style="edgeStyle=orthogonalEdgeStyle;rounded=0;orthogonalLoop=1;jettySize=auto;html=1;entryX=0.5;entryY=1;entryDx=0;entryDy=0;" edge="1" parent="1" source="r2m8VjiUt9aS7Ca-MvFo-101" target="r2m8VjiUt9aS7Ca-MvFo-105">
          <mxGeometry relative="1" as="geometry" />
        </mxCell>
        <mxCell id="r2m8VjiUt9aS7Ca-MvFo-101" value="&lt;font face=&quot;Helvetica&quot; style=&quot;font-size: 14px;&quot;&gt;&lt;font style=&quot;&quot;&gt;⋈(&lt;/font&gt;&lt;/font&gt;&lt;font face=&quot;Helvetica&quot; style=&quot;font-size: 14px;&quot;&gt;&lt;span style=&quot;text-align: start;&quot;&gt;Н_ЛЮДИ &lt;/span&gt;&lt;span style=&quot;text-align: start; color: rgb(0, 51, 179);&quot;&gt;ON &lt;/span&gt;&lt;span style=&quot;text-align: start;&quot;&gt;Н_ЛЮДИ&lt;/span&gt;&lt;span style=&quot;text-align: start; color: rgb(8, 8, 8);&quot;&gt;.&lt;/span&gt;&lt;span style=&quot;text-align: start; color: rgb(135, 16, 148);&quot;&gt;ИД &lt;/span&gt;&lt;span style=&quot;text-align: start; color: rgb(8, 8, 8);&quot;&gt;= &lt;/span&gt;&lt;span style=&quot;text-align: start;&quot;&gt;Н_ОБУЧЕНИЯ&lt;/span&gt;&lt;span style=&quot;text-align: start; color: rgb(8, 8, 8);&quot;&gt;.&lt;/span&gt;&lt;span style=&quot;text-align: start; color: rgb(135, 16, 148);&quot;&gt;ЧЛВК_ИД&lt;/span&gt;&lt;/font&gt;&lt;span style=&quot;font-size: medium; text-align: start;&quot;&gt;&lt;/span&gt;&lt;font face=&quot;Helvetica&quot; style=&quot;font-size: 14px;&quot;&gt;&lt;font style=&quot;&quot;&gt;)&lt;/font&gt;&lt;/font&gt;" style="rounded=0;whiteSpace=wrap;html=1;" vertex="1" parent="1">
          <mxGeometry x="1054.5" y="1120" width="261" height="40" as="geometry" />
        </mxCell>
        <mxCell id="r2m8VjiUt9aS7Ca-MvFo-102" style="edgeStyle=orthogonalEdgeStyle;rounded=0;orthogonalLoop=1;jettySize=auto;html=1;entryX=0.5;entryY=1;entryDx=0;entryDy=0;" edge="1" parent="1" source="r2m8VjiUt9aS7Ca-MvFo-103" target="r2m8VjiUt9aS7Ca-MvFo-105">
          <mxGeometry relative="1" as="geometry" />
        </mxCell>
        <mxCell id="r2m8VjiUt9aS7Ca-MvFo-103" value="&lt;font face=&quot;Helvetica&quot; style=&quot;font-size: 14px;&quot;&gt;&lt;span style=&quot;text-align: left; background-color: rgb(255, 255, 255);&quot;&gt;δ&lt;/span&gt;(&lt;/font&gt;&lt;font style=&quot;font-size: 14px;&quot;&gt;&lt;span style=&quot;text-align: start;&quot;&gt;Н_УЧЕНИКИ&lt;/span&gt;&lt;span style=&quot;text-align: start; color: rgb(8, 8, 8);&quot;&gt;.&lt;/span&gt;&lt;span style=&quot;text-align: start; color: rgb(135, 16, 148);&quot;&gt;ИД &lt;/span&gt;&lt;span style=&quot;text-align: start; color: rgb(8, 8, 8);&quot;&gt;&amp;gt; &lt;/span&gt;&lt;span style=&quot;text-align: start; color: rgb(23, 80, 235);&quot;&gt;150308&lt;/span&gt;&lt;/font&gt;&lt;span style=&quot;font-size: medium; text-align: start;&quot;&gt;&lt;/span&gt;&lt;font face=&quot;Helvetica&quot; style=&quot;font-size: 14px;&quot;&gt;&lt;span style=&quot;background-color: initial;&quot;&gt;)&lt;/span&gt;&lt;/font&gt;" style="rounded=0;whiteSpace=wrap;html=1;" vertex="1" parent="1">
          <mxGeometry x="1448.5" y="1120" width="222" height="40" as="geometry" />
        </mxCell>
        <mxCell id="r2m8VjiUt9aS7Ca-MvFo-111" style="edgeStyle=orthogonalEdgeStyle;rounded=0;orthogonalLoop=1;jettySize=auto;html=1;entryX=0.5;entryY=1;entryDx=0;entryDy=0;" edge="1" parent="1" source="r2m8VjiUt9aS7Ca-MvFo-105" target="r2m8VjiUt9aS7Ca-MvFo-97">
          <mxGeometry relative="1" as="geometry" />
        </mxCell>
        <mxCell id="r2m8VjiUt9aS7Ca-MvFo-105" value="&lt;font face=&quot;Helvetica&quot; style=&quot;font-size: 14px;&quot;&gt;&lt;font style=&quot;&quot;&gt;⋈(&lt;/font&gt;&lt;/font&gt;&lt;font face=&quot;Helvetica&quot; style=&quot;font-size: 14px;&quot;&gt;&lt;span style=&quot;text-align: start;&quot;&gt;Н_УЧЕНИКИ &lt;/span&gt;&lt;span style=&quot;text-align: start; color: rgb(0, 51, 179);&quot;&gt;ON &lt;/span&gt;&lt;span style=&quot;text-align: start;&quot;&gt;Н_УЧЕНИКИ&lt;/span&gt;&lt;span style=&quot;text-align: start; color: rgb(8, 8, 8);&quot;&gt;.&lt;/span&gt;&lt;span style=&quot;text-align: start; color: rgb(135, 16, 148);&quot;&gt;ЧЛВК_ИД &lt;/span&gt;&lt;span style=&quot;text-align: start; color: rgb(8, 8, 8);&quot;&gt;= &lt;/span&gt;&lt;span style=&quot;text-align: start;&quot;&gt;Н_ОБУЧЕНИЯ&lt;/span&gt;&lt;span style=&quot;text-align: start; color: rgb(8, 8, 8);&quot;&gt;.&lt;/span&gt;&lt;span style=&quot;text-align: start; color: rgb(135, 16, 148);&quot;&gt;ЧЛВК_ИД&lt;/span&gt;&lt;/font&gt;&lt;span style=&quot;font-size: medium; text-align: start;&quot;&gt;&lt;/span&gt;&lt;font face=&quot;Helvetica&quot; style=&quot;font-size: 14px;&quot;&gt;&lt;font style=&quot;&quot;&gt;)&lt;/font&gt;&lt;/font&gt;" style="rounded=0;whiteSpace=wrap;html=1;" vertex="1" parent="1">
          <mxGeometry x="1238" y="1040" width="296.5" height="40" as="geometry" />
        </mxCell>
        <mxCell id="r2m8VjiUt9aS7Ca-MvFo-106" style="edgeStyle=orthogonalEdgeStyle;rounded=0;orthogonalLoop=1;jettySize=auto;html=1;" edge="1" parent="1" source="r2m8VjiUt9aS7Ca-MvFo-107" target="r2m8VjiUt9aS7Ca-MvFo-108">
          <mxGeometry relative="1" as="geometry" />
        </mxCell>
        <mxCell id="r2m8VjiUt9aS7Ca-MvFo-107" value="&lt;font face=&quot;Helvetica&quot; style=&quot;font-size: 14px;&quot;&gt;π(&lt;/font&gt;&lt;font face=&quot;Helvetica&quot; style=&quot;font-size: 14px;&quot;&gt;&lt;span style=&quot;text-align: start;&quot;&gt;Н_ЛЮДИ&lt;/span&gt;&lt;span style=&quot;text-align: start; color: rgb(8, 8, 8);&quot;&gt;.&lt;/span&gt;&lt;span style=&quot;text-align: start; color: rgb(135, 16, 148);&quot;&gt;ФАМИЛИЯ&lt;/span&gt;&lt;span style=&quot;text-align: start; color: rgb(8, 8, 8);&quot;&gt;, &lt;/span&gt;&lt;span style=&quot;text-align: start;&quot;&gt;Н_ОБУЧЕНИЯ&lt;/span&gt;&lt;span style=&quot;text-align: start; color: rgb(8, 8, 8);&quot;&gt;.&lt;/span&gt;&lt;span style=&quot;text-align: start; color: rgb(135, 16, 148);&quot;&gt;НЗК&lt;/span&gt;&lt;span style=&quot;text-align: start; color: rgb(8, 8, 8);&quot;&gt;, &lt;/span&gt;&lt;span style=&quot;text-align: start;&quot;&gt;Н_УЧЕНИКИ&lt;/span&gt;&lt;span style=&quot;text-align: start; color: rgb(8, 8, 8);&quot;&gt;.&lt;/span&gt;&lt;span style=&quot;text-align: start; color: rgb(135, 16, 148);&quot;&gt;ИД&lt;/span&gt;&lt;/font&gt;&lt;span style=&quot;font-size: medium; text-align: start;&quot;&gt;&lt;/span&gt;&lt;font face=&quot;Helvetica&quot; style=&quot;font-size: 14px;&quot;&gt;)&lt;/font&gt;" style="rounded=0;whiteSpace=wrap;html=1;" vertex="1" parent="1">
          <mxGeometry x="1213" y="850" width="346.5" height="50" as="geometry" />
        </mxCell>
        <mxCell id="r2m8VjiUt9aS7Ca-MvFo-108" value="&lt;font style=&quot;font-size: 14px;&quot;&gt;result&lt;/font&gt;" style="rounded=0;whiteSpace=wrap;html=1;" vertex="1" parent="1">
          <mxGeometry x="1356.25" y="800" width="60" height="30" as="geometry" />
        </mxCell>
      </root>
    </mxGraphModel>
  </diagram>
</mxfile>
